<svg width="335" height="246" viewBox="0 0 335 246" fill="none" xmlns="http://www.w3.org/2000/svg">
<path d="M194.567 148.12C182.766 250.243 -16.826 258.102 4.60914 220.5C19.9899 193.518 54.3484 191.954 84.1091 182.428C84.1091 182.428 39.3594 179.129 31.1091 151C22.8587 122.871 123.77 156.5 145.514 119C158.641 88.8606 177.643 69.5 190 69.5C208.5 69.5 210.5 74.5 210.5 74.5C230.13 81.2092 235.222 138 235.222 138C235.222 138 252.841 152.676 275.109 151C299.906 149.134 329.609 135.572 323.109 162.5C316.609 189.428 267.609 189.391 267.609 189.391C267.609 189.391 359.833 215.93 323.109 236C281.907 258.517 194.34 223.652 194.567 148.12Z" fill="#FFF500"/>
<path d="M84.1091 182.428C97.1544 178.252 109.316 172.547 118.609 162.5C130.604 149.533 138.988 133.985 145.514 119M84.1091 182.428C54.3484 191.954 19.9899 193.518 4.60914 220.5C-17.5136 259.309 195.798 249.692 195.109 138C186.609 220.5 280.109 259.5 323.109 236C359.833 215.93 267.609 189.391 267.609 189.391M84.1091 182.428C84.1091 182.428 39.3594 179.129 31.1091 151C22.8587 122.871 123.77 156.5 145.514 119M145.514 119C158.641 88.8606 177.643 69.5 190 69.5C208.5 69.5 210.5 74.5 210.5 74.5C230.13 81.2092 235.222 138 235.222 138M235.222 138C235.222 138 239.153 161.514 248.109 173C254.226 180.845 267.609 189.391 267.609 189.391M235.222 138C235.222 138 252.841 152.676 275.109 151C299.906 149.134 329.609 135.572 323.109 162.5C316.609 189.428 267.609 189.391 267.609 189.391" stroke="black" stroke-width="5" stroke-linejoin="round"/>
<path d="M187.147 75.7271L202.158 6L230.306 40.0431L208.456 79.9432L187.147 75.7271Z" fill="#A95E28" stroke="black" stroke-width="5"/>
</svg>
