<svg width="441" height="337" viewBox="0 0 441 337" fill="none" xmlns="http://www.w3.org/2000/svg">
<path d="M236.373 51.4056C238.075 -0.549234 282.08 108.345 319.432 153.328C356.784 198.31 302.762 157.697 302.762 157.697C302.762 157.697 251.713 121.642 241.179 85.9012C237.343 72.8854 235.927 65.0246 236.373 51.4056Z" fill="#C4D2DF" stroke="black" stroke-width="5"/>
<path d="M197.903 89.0107C198.819 45.9168 236.344 135.785 267.743 172.725C299.142 209.666 253.964 176.507 253.964 176.507C253.964 176.507 211.293 147.1 202.218 117.566C198.913 106.811 197.663 100.307 197.903 89.0107Z" fill="#C4D2DF" stroke="black" stroke-width="5"/>
<path d="M164.226 122.881C164.68 83.7043 199.576 165.058 228.44 198.359C257.304 231.659 215.949 201.917 215.949 201.917C215.949 201.917 176.906 175.562 168.398 148.799C165.3 139.052 164.107 133.151 164.226 122.881Z" fill="#C4D2DF" stroke="black" stroke-width="5"/>
<path d="M124.884 157.415C124.874 127.129 152.595 189.689 175.211 215.162C197.826 240.636 165.588 218.028 165.588 218.028C165.588 218.028 135.169 198.017 128.347 177.408C125.862 169.903 124.886 165.353 124.884 157.415Z" fill="#C4D2DF" stroke="black" stroke-width="5"/>
<path d="M96.0113 184.93C96.0036 160.032 118.793 211.463 137.385 232.404C155.978 253.346 129.475 234.76 129.475 234.76C129.475 234.76 104.467 218.309 98.8583 201.367C96.8158 195.197 96.0133 191.456 96.0113 184.93Z" fill="#C4D2DF" stroke="black" stroke-width="5"/>
<path d="M76.8592 221.5C76.8592 221.5 266.859 125.364 320.859 55.5002C332.067 40.9992 368.383 88.6799 350.359 92.0002C255.359 109.5 92.3592 247.5 92.3592 247.5C92.3592 247.5 97.8597 355.5 86.3594 329.5C63.8642 278.643 39.3589 233 8.85931 202C-21.6403 171 76.8592 221.5 76.8592 221.5Z" fill="#C4D2DF" stroke="black" stroke-width="5"/>
<path d="M374.923 143.201L285.036 16.7673C285.036 16.7673 397.978 -6.09974 425.299 36.5224C451.631 77.601 374.923 143.201 374.923 143.201Z" fill="#C4D2DF" stroke="black" stroke-width="5" stroke-linejoin="round"/>
<circle cx="350.036" cy="44.2315" r="15.7736" transform="rotate(4.19755 350.036 44.2315)" fill="white" stroke="black" stroke-width="5"/>
<path d="M412.666 104.171C401.764 103.314 397.086 100.587 391.873 90.8495" stroke="black" stroke-width="5" stroke-linejoin="round"/>
</svg>
