<svg width="579" height="184" viewBox="0 0 579 184" fill="none" xmlns="http://www.w3.org/2000/svg">
<path d="M502.093 162.758C366.619 187.081 193.035 187.081 77.902 162.758C43.0235 155.389 11.0704 137.656 17.9376 94.2112C23.8977 56.5046 41.5986 28.2564 77.9019 21.2422C203.79 -3.08073 382.165 -3.08075 502.093 21.2422C538.33 28.5914 556.097 56.5046 562.057 94.2112C568.925 137.656 537.182 156.458 502.093 162.758Z" fill="white"/>
<path d="M481 156C359 178 202.681 178 98.9999 156C67.5905 149.335 38.8156 133.296 44.9997 94C50.367 59.8946 66.3073 34.3443 98.9998 28C212.367 6.00002 373 6 481 28C513.632 34.6473 529.632 59.8946 535 94C541.184 133.296 512.599 150.302 481 156Z" fill="#0F94CD"/>
<path d="M502.093 162.758C366.619 187.081 193.035 187.081 77.902 162.758C43.0235 155.389 11.0704 137.656 17.9376 94.2112C23.8977 56.5046 41.5986 28.2564 77.9019 21.2422C203.79 -3.08073 382.165 -3.08075 502.093 21.2422C538.33 28.5914 556.097 56.5046 562.057 94.2112C568.925 137.656 537.182 156.458 502.093 162.758Z" stroke="black" stroke-width="5"/>
<path d="M481 156C359 178 202.681 178 98.9999 156C67.5905 149.335 38.8156 133.296 44.9997 94C50.367 59.8946 66.3073 34.3443 98.9998 28C212.367 6.00002 373 6 481 28C513.632 34.6473 529.632 59.8946 535 94C541.184 133.296 512.599 150.302 481 156Z" stroke="black" stroke-width="5"/>
<path d="M173.821 90.0909C173.821 97.7045 172.378 104.182 169.491 109.523C166.628 114.864 162.719 118.943 157.764 121.761C152.832 124.557 147.287 125.955 141.128 125.955C134.923 125.955 129.355 124.545 124.423 121.727C119.491 118.909 115.594 114.83 112.73 109.489C109.866 104.148 108.435 97.6818 108.435 90.0909C108.435 82.4773 109.866 76 112.73 70.6591C115.594 65.3182 119.491 61.25 124.423 58.4545C129.355 55.6364 134.923 54.2273 141.128 54.2273C147.287 54.2273 152.832 55.6364 157.764 58.4545C162.719 61.25 166.628 65.3182 169.491 70.6591C172.378 76 173.821 82.4773 173.821 90.0909ZM158.855 90.0909C158.855 85.1591 158.116 81 156.639 77.6136C155.185 74.2273 153.128 71.6591 150.469 69.9091C147.81 68.1591 144.696 67.2841 141.128 67.2841C137.56 67.2841 134.446 68.1591 131.787 69.9091C129.128 71.6591 127.06 74.2273 125.582 77.6136C124.128 81 123.401 85.1591 123.401 90.0909C123.401 95.0227 124.128 99.1818 125.582 102.568C127.06 105.955 129.128 108.523 131.787 110.273C134.446 112.023 137.56 112.898 141.128 112.898C144.696 112.898 147.81 112.023 150.469 110.273C153.128 108.523 155.185 105.955 156.639 102.568C158.116 99.1818 158.855 95.0227 158.855 90.0909ZM184.483 144.636V72.6364H198.801V81.4318H199.449C200.085 80.0227 201.006 78.5909 202.21 77.1364C203.438 75.6591 205.028 74.4318 206.983 73.4545C208.96 72.4545 211.415 71.9545 214.347 71.9545C218.165 71.9545 221.688 72.9545 224.915 74.9545C228.142 76.9318 230.722 79.9205 232.653 83.9205C234.585 87.8977 235.551 92.8864 235.551 98.8864C235.551 104.727 234.608 109.659 232.722 113.682C230.858 117.682 228.313 120.716 225.085 122.784C221.881 124.83 218.29 125.852 214.312 125.852C211.494 125.852 209.097 125.386 207.119 124.455C205.165 123.523 203.562 122.352 202.312 120.943C201.062 119.511 200.108 118.068 199.449 116.614H199.006V144.636H184.483ZM198.699 98.8182C198.699 101.932 199.131 104.648 199.994 106.966C200.858 109.284 202.108 111.091 203.744 112.386C205.381 113.659 207.369 114.295 209.71 114.295C212.074 114.295 214.074 113.648 215.71 112.352C217.347 111.034 218.585 109.216 219.426 106.898C220.29 104.557 220.722 101.864 220.722 98.8182C220.722 95.7955 220.301 93.1364 219.46 90.8409C218.619 88.5455 217.381 86.75 215.744 85.4545C214.108 84.1591 212.097 83.5114 209.71 83.5114C207.347 83.5114 205.347 84.1364 203.71 85.3864C202.097 86.6364 200.858 88.4091 199.994 90.7045C199.131 93 198.699 95.7045 198.699 98.8182ZM273.085 72.6364V83.5455H241.551V72.6364H273.085ZM248.71 60.0909H263.233V108.909C263.233 110.25 263.438 111.295 263.847 112.045C264.256 112.773 264.824 113.284 265.551 113.58C266.301 113.875 267.165 114.023 268.142 114.023C268.824 114.023 269.506 113.966 270.188 113.852C270.869 113.716 271.392 113.614 271.756 113.545L274.04 124.352C273.313 124.58 272.29 124.841 270.972 125.136C269.653 125.455 268.051 125.648 266.165 125.716C262.665 125.852 259.597 125.386 256.96 124.318C254.347 123.25 252.313 121.591 250.858 119.341C249.403 117.091 248.688 114.25 248.71 110.818V60.0909ZM282.545 125V72.6364H297.068V125H282.545ZM289.841 65.8864C287.682 65.8864 285.83 65.1705 284.284 63.7386C282.761 62.2841 282 60.5455 282 58.5227C282 56.5227 282.761 54.8068 284.284 53.375C285.83 51.9205 287.682 51.1932 289.841 51.1932C292 51.1932 293.841 51.9205 295.364 53.375C296.909 54.8068 297.682 56.5227 297.682 58.5227C297.682 60.5455 296.909 62.2841 295.364 63.7386C293.841 65.1705 292 65.8864 289.841 65.8864ZM332.361 126.023C327.065 126.023 322.486 124.898 318.622 122.648C314.781 120.375 311.815 117.216 309.724 113.17C307.634 109.102 306.588 104.386 306.588 99.0227C306.588 93.6136 307.634 88.8864 309.724 84.8409C311.815 80.7727 314.781 77.6136 318.622 75.3636C322.486 73.0909 327.065 71.9545 332.361 71.9545C337.656 71.9545 342.224 73.0909 346.065 75.3636C349.929 77.6136 352.906 80.7727 354.997 84.8409C357.088 88.8864 358.134 93.6136 358.134 99.0227C358.134 104.386 357.088 109.102 354.997 113.17C352.906 117.216 349.929 120.375 346.065 122.648C342.224 124.898 337.656 126.023 332.361 126.023ZM332.429 114.773C334.838 114.773 336.849 114.091 338.463 112.727C340.077 111.341 341.293 109.455 342.111 107.068C342.952 104.682 343.372 101.966 343.372 98.9205C343.372 95.875 342.952 93.1591 342.111 90.7727C341.293 88.3864 340.077 86.5 338.463 85.1136C336.849 83.7273 334.838 83.0341 332.429 83.0341C329.997 83.0341 327.952 83.7273 326.293 85.1136C324.656 86.5 323.418 88.3864 322.577 90.7727C321.759 93.1591 321.349 95.875 321.349 98.9205C321.349 101.966 321.759 104.682 322.577 107.068C323.418 109.455 324.656 111.341 326.293 112.727C327.952 114.091 329.997 114.773 332.429 114.773ZM382.099 94.7273V125H367.577V72.6364H381.418V81.875H382.031C383.19 78.8295 385.134 76.4205 387.861 74.6477C390.588 72.8523 393.895 71.9545 397.781 71.9545C401.418 71.9545 404.588 72.75 407.293 74.3409C409.997 75.9318 412.099 78.2045 413.599 81.1591C415.099 84.0909 415.849 87.5909 415.849 91.6591V125H401.327V94.25C401.349 91.0455 400.531 88.5455 398.872 86.75C397.213 84.9318 394.929 84.0227 392.02 84.0227C390.065 84.0227 388.338 84.4432 386.838 85.2841C385.361 86.125 384.202 87.3523 383.361 88.9659C382.543 90.5568 382.122 92.4773 382.099 94.7273ZM470.864 87.5682L457.568 88.3864C457.341 87.25 456.852 86.2273 456.102 85.3182C455.352 84.3864 454.364 83.6477 453.136 83.1023C451.932 82.5341 450.489 82.25 448.807 82.25C446.557 82.25 444.659 82.7273 443.114 83.6818C441.568 84.6136 440.795 85.8636 440.795 87.4318C440.795 88.6818 441.295 89.7386 442.295 90.6023C443.295 91.4659 445.011 92.1591 447.443 92.6818L456.92 94.5909C462.011 95.6364 465.807 97.3182 468.307 99.6364C470.807 101.955 472.057 105 472.057 108.773C472.057 112.205 471.045 115.216 469.023 117.807C467.023 120.398 464.273 122.42 460.773 123.875C457.295 125.307 453.284 126.023 448.739 126.023C441.807 126.023 436.284 124.58 432.17 121.693C428.08 118.784 425.682 114.83 424.977 109.83L439.261 109.08C439.693 111.193 440.739 112.807 442.398 113.92C444.057 115.011 446.182 115.557 448.773 115.557C451.318 115.557 453.364 115.068 454.909 114.091C456.477 113.091 457.273 111.807 457.295 110.239C457.273 108.92 456.716 107.841 455.625 107C454.534 106.136 452.852 105.477 450.58 105.023L441.511 103.216C436.398 102.193 432.591 100.42 430.091 97.8977C427.614 95.375 426.375 92.1591 426.375 88.25C426.375 84.8864 427.284 81.9886 429.102 79.5568C430.943 77.125 433.523 75.25 436.841 73.9318C440.182 72.6136 444.091 71.9545 448.568 71.9545C455.182 71.9545 460.386 73.3523 464.182 76.1477C468 78.9432 470.227 82.75 470.864 87.5682Z" fill="black"/>
</svg>
