<svg width="847" height="164" viewBox="0 0 847 164" fill="none" xmlns="http://www.w3.org/2000/svg">
<mask id="path-1-inside-1_18_4" fill="white">
<rect width="847" height="163.77" rx="17"/>
</mask>
<rect width="847" height="163.77" rx="17" fill="white" stroke="#14729A" stroke-width="40" mask="url(#path-1-inside-1_18_4)"/>
<path d="M269.261 81.4545C269.261 91.6061 267.337 100.242 263.489 107.364C259.67 114.485 254.458 119.924 247.852 123.682C241.277 127.409 233.883 129.273 225.67 129.273C217.398 129.273 209.973 127.394 203.398 123.636C196.822 119.879 191.625 114.439 187.807 107.318C183.989 100.197 182.08 91.5758 182.08 81.4545C182.08 71.303 183.989 62.6667 187.807 55.5455C191.625 48.4242 196.822 43 203.398 39.2727C209.973 35.5151 217.398 33.6364 225.67 33.6364C233.883 33.6364 241.277 35.5151 247.852 39.2727C254.458 43 259.67 48.4242 263.489 55.5455C267.337 62.6667 269.261 71.303 269.261 81.4545ZM249.307 81.4545C249.307 74.8788 248.322 69.3333 246.352 64.8182C244.413 60.303 241.67 56.8788 238.125 54.5455C234.58 52.2121 230.428 51.0455 225.67 51.0455C220.913 51.0455 216.761 52.2121 213.216 54.5455C209.67 56.8788 206.913 60.303 204.943 64.8182C203.004 69.3333 202.034 74.8788 202.034 81.4545C202.034 88.0303 203.004 93.5758 204.943 98.0909C206.913 102.606 209.67 106.03 213.216 108.364C216.761 110.697 220.913 111.864 225.67 111.864C230.428 111.864 234.58 110.697 238.125 108.364C241.67 106.03 244.413 102.606 246.352 98.0909C248.322 93.5758 249.307 88.0303 249.307 81.4545ZM283.477 154.182V58.1818H302.568V69.9091H303.432C304.28 68.0303 305.508 66.1212 307.114 64.1818C308.75 62.2121 310.871 60.5758 313.477 59.2727C316.114 57.9394 319.386 57.2727 323.295 57.2727C328.386 57.2727 333.083 58.6061 337.386 61.2727C341.689 63.9091 345.129 67.8939 347.705 73.2273C350.28 78.5303 351.568 85.1818 351.568 93.1818C351.568 100.97 350.311 107.545 347.795 112.909C345.311 118.242 341.917 122.288 337.614 125.045C333.341 127.773 328.553 129.136 323.25 129.136C319.492 129.136 316.295 128.515 313.659 127.273C311.053 126.03 308.917 124.47 307.25 122.591C305.583 120.682 304.311 118.758 303.432 116.818H302.841V154.182H283.477ZM302.432 93.0909C302.432 97.2424 303.008 100.864 304.159 103.955C305.311 107.045 306.977 109.455 309.159 111.182C311.341 112.879 313.992 113.727 317.114 113.727C320.265 113.727 322.932 112.864 325.114 111.136C327.295 109.379 328.947 106.955 330.068 103.864C331.22 100.742 331.795 97.1515 331.795 93.0909C331.795 89.0606 331.235 85.5151 330.114 82.4545C328.992 79.3939 327.341 77 325.159 75.2727C322.977 73.5455 320.295 72.6818 317.114 72.6818C313.962 72.6818 311.295 73.5151 309.114 75.1818C306.962 76.8485 305.311 79.2121 304.159 82.2727C303.008 85.3333 302.432 88.9394 302.432 93.0909ZM401.614 58.1818V72.7273H359.568V58.1818H401.614ZM369.114 41.4545H388.477V106.545C388.477 108.333 388.75 109.727 389.295 110.727C389.841 111.697 390.598 112.379 391.568 112.773C392.568 113.167 393.72 113.364 395.023 113.364C395.932 113.364 396.841 113.288 397.75 113.136C398.659 112.955 399.356 112.818 399.841 112.727L402.886 127.136C401.917 127.439 400.553 127.788 398.795 128.182C397.038 128.606 394.902 128.864 392.386 128.955C387.72 129.136 383.629 128.515 380.114 127.091C376.629 125.667 373.917 123.455 371.977 120.455C370.038 117.455 369.083 113.667 369.114 109.091V41.4545ZM414.227 128V58.1818H433.591V128H414.227ZM423.955 49.1818C421.076 49.1818 418.606 48.2273 416.545 46.3182C414.515 44.3788 413.5 42.0606 413.5 39.3636C413.5 36.697 414.515 34.4091 416.545 32.5C418.606 30.5606 421.076 29.5909 423.955 29.5909C426.833 29.5909 429.288 30.5606 431.318 32.5C433.379 34.4091 434.409 36.697 434.409 39.3636C434.409 42.0606 433.379 44.3788 431.318 46.3182C429.288 48.2273 426.833 49.1818 423.955 49.1818ZM480.648 129.364C473.587 129.364 467.481 127.864 462.33 124.864C457.208 121.833 453.254 117.621 450.466 112.227C447.678 106.803 446.284 100.515 446.284 93.3636C446.284 86.1515 447.678 79.8485 450.466 74.4545C453.254 69.0303 457.208 64.8182 462.33 61.8182C467.481 58.7879 473.587 57.2727 480.648 57.2727C487.708 57.2727 493.799 58.7879 498.92 61.8182C504.072 64.8182 508.042 69.0303 510.83 74.4545C513.617 79.8485 515.011 86.1515 515.011 93.3636C515.011 100.515 513.617 106.803 510.83 112.227C508.042 117.621 504.072 121.833 498.92 124.864C493.799 127.864 487.708 129.364 480.648 129.364ZM480.739 114.364C483.951 114.364 486.633 113.455 488.784 111.636C490.936 109.788 492.557 107.273 493.648 104.091C494.769 100.909 495.33 97.2879 495.33 93.2273C495.33 89.1667 494.769 85.5455 493.648 82.3636C492.557 79.1818 490.936 76.6667 488.784 74.8182C486.633 72.9697 483.951 72.0455 480.739 72.0455C477.496 72.0455 474.769 72.9697 472.557 74.8182C470.375 76.6667 468.723 79.1818 467.602 82.3636C466.511 85.5455 465.966 89.1667 465.966 93.2273C465.966 97.2879 466.511 100.909 467.602 104.091C468.723 107.273 470.375 109.788 472.557 111.636C474.769 113.455 477.496 114.364 480.739 114.364ZM546.966 87.6364V128H527.602V58.1818H546.057V70.5H546.875C548.42 66.4394 551.011 63.2273 554.648 60.8636C558.284 58.4697 562.693 57.2727 567.875 57.2727C572.723 57.2727 576.951 58.3333 580.557 60.4545C584.163 62.5758 586.966 65.6061 588.966 69.5455C590.966 73.4545 591.966 78.1212 591.966 83.5455V128H572.602V87C572.633 82.7273 571.542 79.3939 569.33 77C567.117 74.5758 564.072 73.3636 560.193 73.3636C557.587 73.3636 555.284 73.9242 553.284 75.0455C551.314 76.1667 549.769 77.803 548.648 79.9545C547.557 82.0758 546.996 84.6364 546.966 87.6364ZM665.318 78.0909L647.591 79.1818C647.288 77.6667 646.636 76.303 645.636 75.0909C644.636 73.8485 643.318 72.8636 641.682 72.1364C640.076 71.3788 638.152 71 635.909 71C632.909 71 630.379 71.6364 628.318 72.9091C626.258 74.1515 625.227 75.8182 625.227 77.9091C625.227 79.5758 625.894 80.9848 627.227 82.1364C628.561 83.2879 630.848 84.2121 634.091 84.9091L646.727 87.4545C653.515 88.8485 658.576 91.0909 661.909 94.1818C665.242 97.2727 666.909 101.333 666.909 106.364C666.909 110.939 665.561 114.955 662.864 118.409C660.197 121.864 656.53 124.561 651.864 126.5C647.227 128.409 641.879 129.364 635.818 129.364C626.576 129.364 619.212 127.439 613.727 123.591C608.273 119.712 605.076 114.439 604.136 107.773L623.182 106.773C623.758 109.591 625.152 111.742 627.364 113.227C629.576 114.682 632.409 115.409 635.864 115.409C639.258 115.409 641.985 114.758 644.045 113.455C646.136 112.121 647.197 110.409 647.227 108.318C647.197 106.561 646.455 105.121 645 104C643.545 102.848 641.303 101.97 638.273 101.364L626.182 98.9545C619.364 97.5909 614.288 95.2273 610.955 91.8636C607.652 88.5 606 84.2121 606 79C606 74.5151 607.212 70.6515 609.636 67.4091C612.091 64.1667 615.53 61.6667 619.955 59.9091C624.409 58.1515 629.621 57.2727 635.591 57.2727C644.409 57.2727 651.348 59.1364 656.409 62.8636C661.5 66.5909 664.47 71.6667 665.318 78.0909Z" fill="#14729A"/>
</svg>
