<svg width="579" height="184" viewBox="0 0 579 184" fill="none" xmlns="http://www.w3.org/2000/svg">
<path d="M502.093 162.758C366.619 187.081 193.035 187.081 77.902 162.758C43.0235 155.389 11.0704 137.656 17.9376 94.2112C23.8977 56.5046 41.5986 28.2564 77.9019 21.2422C203.79 -3.08073 382.165 -3.08075 502.093 21.2422C538.33 28.5914 556.097 56.5046 562.057 94.2112C568.925 137.656 537.182 156.458 502.093 162.758Z" fill="white"/>
<path d="M481 156C359 178 202.681 178 98.9999 156C67.5905 149.335 38.8156 133.296 44.9997 94C50.367 59.8946 66.3073 34.3443 98.9998 28C212.367 6.00002 373 6 481 28C513.632 34.6473 529.632 59.8946 535 94C541.184 133.296 512.599 150.302 481 156Z" fill="#E10923"/>
<path d="M502.093 162.758C366.619 187.081 193.035 187.081 77.902 162.758C43.0235 155.389 11.0704 137.656 17.9376 94.2112C23.8977 56.5046 41.5986 28.2564 77.9019 21.2422C203.79 -3.08073 382.165 -3.08075 502.093 21.2422C538.33 28.5914 556.097 56.5046 562.057 94.2112C568.925 137.656 537.182 156.458 502.093 162.758Z" stroke="black" stroke-width="5"/>
<path d="M481 156C359 178 202.681 178 98.9999 156C67.5905 149.335 38.8156 133.296 44.9997 94C50.367 59.8946 66.3073 34.3443 98.9998 28C212.367 6.00002 373 6 481 28C513.632 34.6473 529.632 59.8946 535 94C541.184 133.296 512.599 150.302 481 156Z" stroke="black" stroke-width="5"/>
<path d="M222.78 102.727H235.325L241.632 110.841L247.837 118.068L259.53 132.727H245.757L237.712 122.841L233.587 116.977L222.78 102.727ZM260.587 92.0909C260.587 99.7045 259.143 106.182 256.257 111.523C253.393 116.864 249.484 120.943 244.53 123.761C239.598 126.557 234.053 127.955 227.893 127.955C221.689 127.955 216.121 126.545 211.189 123.727C206.257 120.909 202.359 116.83 199.496 111.489C196.632 106.148 195.2 99.6818 195.2 92.0909C195.2 84.4773 196.632 78 199.496 72.6591C202.359 67.3182 206.257 63.25 211.189 60.4545C216.121 57.6364 221.689 56.2273 227.893 56.2273C234.053 56.2273 239.598 57.6364 244.53 60.4545C249.484 63.25 253.393 67.3182 256.257 72.6591C259.143 78 260.587 84.4773 260.587 92.0909ZM245.621 92.0909C245.621 87.1591 244.882 83 243.405 79.6136C241.95 76.2273 239.893 73.6591 237.234 71.9091C234.575 70.1591 231.462 69.2841 227.893 69.2841C224.325 69.2841 221.212 70.1591 218.553 71.9091C215.893 73.6591 213.825 76.2273 212.348 79.6136C210.893 83 210.166 87.1591 210.166 92.0909C210.166 97.0227 210.893 101.182 212.348 104.568C213.825 107.955 215.893 110.523 218.553 112.273C221.212 114.023 224.325 114.898 227.893 114.898C231.462 114.898 234.575 114.023 237.234 112.273C239.893 110.523 241.95 107.955 243.405 104.568C244.882 101.182 245.621 97.0227 245.621 92.0909ZM304.828 104.705V74.6364H319.351V127H305.408V117.489H304.862C303.68 120.557 301.714 123.023 298.964 124.886C296.237 126.75 292.908 127.682 288.976 127.682C285.476 127.682 282.396 126.886 279.737 125.295C277.078 123.705 274.999 121.443 273.499 118.511C272.021 115.58 271.271 112.068 271.249 107.977V74.6364H285.771V105.386C285.794 108.477 286.624 110.92 288.26 112.716C289.896 114.511 292.089 115.409 294.839 115.409C296.589 115.409 298.226 115.011 299.749 114.216C301.271 113.398 302.499 112.193 303.43 110.602C304.385 109.011 304.851 107.045 304.828 104.705ZM330.967 127V74.6364H345.49V127H330.967ZM338.263 67.8864C336.104 67.8864 334.251 67.1705 332.706 65.7386C331.183 64.2841 330.422 62.5455 330.422 60.5227C330.422 58.5227 331.183 56.8068 332.706 55.375C334.251 53.9205 336.104 53.1932 338.263 53.1932C340.422 53.1932 342.263 53.9205 343.786 55.375C345.331 56.8068 346.104 58.5227 346.104 60.5227C346.104 62.5455 345.331 64.2841 343.786 65.7386C342.263 67.1705 340.422 67.8864 338.263 67.8864ZM384.976 74.6364V85.5455H353.442V74.6364H384.976ZM360.601 62.0909H375.124V110.909C375.124 112.25 375.328 113.295 375.737 114.045C376.146 114.773 376.714 115.284 377.442 115.58C378.192 115.875 379.055 116.023 380.033 116.023C380.714 116.023 381.396 115.966 382.078 115.852C382.76 115.716 383.283 115.614 383.646 115.545L385.93 126.352C385.203 126.58 384.18 126.841 382.862 127.136C381.544 127.455 379.942 127.648 378.055 127.716C374.555 127.852 371.487 127.386 368.851 126.318C366.237 125.25 364.203 123.591 362.749 121.341C361.294 119.091 360.578 116.25 360.601 112.818V62.0909Z" fill="black"/>
</svg>
