<svg width="847" height="165" viewBox="0 0 847 165" fill="none" xmlns="http://www.w3.org/2000/svg">
<mask id="path-1-inside-1_19_2" fill="white">
<rect y="0.0168304" width="847" height="164.008" rx="12"/>
</mask>
<rect y="0.0168304" width="847" height="164.008" rx="12" fill="white" stroke="#14729A" stroke-width="40" mask="url(#path-1-inside-1_19_2)"/>
<path d="M334.54 96.6532H351.267L359.676 107.471L367.949 117.108L383.54 136.653H365.176L354.449 123.471L348.949 115.653L334.54 96.6532ZM384.949 82.4714C384.949 92.6229 383.025 101.259 379.176 108.38C375.358 115.502 370.146 120.941 363.54 124.699C356.964 128.426 349.57 130.29 341.358 130.29C333.085 130.29 325.661 128.411 319.085 124.653C312.509 120.896 307.313 115.456 303.494 108.335C299.676 101.214 297.767 92.5926 297.767 82.4714C297.767 72.3199 299.676 63.6835 303.494 56.5623C307.313 49.4411 312.509 44.0168 319.085 40.2896C325.661 36.532 333.085 34.6532 341.358 34.6532C349.57 34.6532 356.964 36.532 363.54 40.2896C370.146 44.0168 375.358 49.4411 379.176 56.5623C383.025 63.6835 384.949 72.3199 384.949 82.4714ZM364.994 82.4714C364.994 75.8956 364.009 70.3502 362.04 65.835C360.1 61.3199 357.358 57.8956 353.812 55.5623C350.267 53.229 346.116 52.0623 341.358 52.0623C336.6 52.0623 332.449 53.229 328.903 55.5623C325.358 57.8956 322.6 61.3199 320.631 65.835C318.691 70.3502 317.722 75.8956 317.722 82.4714C317.722 89.0471 318.691 94.5926 320.631 99.1077C322.6 103.623 325.358 107.047 328.903 109.38C332.449 111.714 336.6 112.88 341.358 112.88C346.116 112.88 350.267 111.714 353.812 109.38C357.358 107.047 360.1 103.623 362.04 99.1077C364.009 94.5926 364.994 89.0471 364.994 82.4714ZM443.938 99.2896V59.1986H463.301V129.017H444.71V116.335H443.983C442.407 120.426 439.786 123.714 436.119 126.199C432.483 128.683 428.044 129.926 422.801 129.926C418.134 129.926 414.028 128.865 410.483 126.744C406.938 124.623 404.165 121.608 402.165 117.699C400.195 113.79 399.195 109.108 399.165 103.653V59.1986H418.528V100.199C418.559 104.32 419.665 107.577 421.847 109.971C424.028 112.365 426.953 113.562 430.619 113.562C432.953 113.562 435.134 113.032 437.165 111.971C439.195 110.88 440.831 109.274 442.074 107.153C443.347 105.032 443.968 102.411 443.938 99.2896ZM478.79 129.017V59.1986H498.153V129.017H478.79ZM488.517 50.1986C485.638 50.1986 483.169 49.2441 481.108 47.335C479.078 45.3956 478.062 43.0774 478.062 40.3805C478.062 37.7138 479.078 35.4259 481.108 33.5168C483.169 31.5774 485.638 30.6077 488.517 30.6077C491.396 30.6077 493.85 31.5774 495.881 33.5168C497.941 35.4259 498.972 37.7138 498.972 40.3805C498.972 43.0774 497.941 45.3956 495.881 47.335C493.85 49.2441 491.396 50.1986 488.517 50.1986ZM550.801 59.1986V73.7441H508.756V59.1986H550.801ZM518.301 42.4714H537.665V107.562C537.665 109.35 537.938 110.744 538.483 111.744C539.028 112.714 539.786 113.396 540.756 113.79C541.756 114.183 542.907 114.38 544.21 114.38C545.119 114.38 546.028 114.305 546.938 114.153C547.847 113.971 548.544 113.835 549.028 113.744L552.074 128.153C551.104 128.456 549.741 128.805 547.983 129.199C546.225 129.623 544.089 129.88 541.574 129.971C536.907 130.153 532.816 129.532 529.301 128.108C525.816 126.683 523.104 124.471 521.165 121.471C519.225 118.471 518.271 114.683 518.301 110.108V42.4714Z" fill="#14729A"/>
</svg>
