<svg width="610" height="228" viewBox="0 0 610 228" fill="none" xmlns="http://www.w3.org/2000/svg">
<path d="M582.638 2.5H80.9802C71.0772 2.5 62.3385 8.97489 59.4551 18.4489L5.46755 195.836C1.06829 210.291 11.8834 224.888 26.9927 224.888H528.65C538.553 224.888 547.292 218.413 550.175 208.939L604.163 31.5511C608.562 17.0964 597.747 2.5 582.638 2.5Z" fill="white" stroke="black" stroke-width="5"/>
<path d="M529.459 21.4033H121.545C111.646 21.4033 102.91 27.873 100.023 37.3417L57.4684 176.923C53.0608 191.38 63.8764 205.984 78.9903 205.984H486.904C496.803 205.984 505.539 199.515 508.426 190.046L550.981 50.4648C555.388 36.0079 544.573 21.4033 529.459 21.4033Z" fill="#F3883C" stroke="black" stroke-width="5" stroke-linejoin="round"/>
</svg>
