<svg width="579" height="184" viewBox="0 0 579 184" fill="none" xmlns="http://www.w3.org/2000/svg">
<path d="M502.093 162.758C366.619 187.081 193.035 187.081 77.902 162.758C43.0235 155.389 11.0704 137.656 17.9376 94.2112C23.8977 56.5046 41.5986 28.2564 77.9019 21.2422C203.79 -3.08073 382.165 -3.08075 502.093 21.2422C538.33 28.5914 556.097 56.5046 562.057 94.2112C568.925 137.656 537.182 156.458 502.093 162.758Z" fill="white"/>
<path d="M481 156C359 178 202.681 178 98.9999 156C67.5905 149.335 38.8156 133.296 44.9997 94C50.367 59.8946 66.3073 34.3443 98.9998 28C212.367 6.00002 373 6 481 28C513.632 34.6473 529.632 59.8946 535 94C541.184 133.296 512.599 150.302 481 156Z" fill="#4D9867"/>
<path d="M502.093 162.758C366.619 187.081 193.035 187.081 77.902 162.758C43.0235 155.389 11.0704 137.656 17.9376 94.2112C23.8977 56.5046 41.5986 28.2564 77.9019 21.2422C203.79 -3.08073 382.165 -3.08075 502.093 21.2422C538.33 28.5914 556.097 56.5046 562.057 94.2112C568.925 137.656 537.182 156.458 502.093 162.758Z" stroke="black" stroke-width="5"/>
<path d="M481 156C359 178 202.681 178 98.9999 156C67.5905 149.335 38.8156 133.296 44.9997 94C50.367 59.8946 66.3073 34.3443 98.9998 28C212.367 6.00002 373 6 481 28C513.632 34.6473 529.632 59.8946 535 94C541.184 133.296 512.599 150.302 481 156Z" stroke="black" stroke-width="5"/>
<path d="M215.881 70.2614C215.608 67.5114 214.438 65.375 212.369 63.8523C210.301 62.3295 207.494 61.5682 203.949 61.5682C201.54 61.5682 199.506 61.9091 197.847 62.5909C196.188 63.25 194.915 64.1705 194.028 65.3523C193.165 66.5341 192.733 67.875 192.733 69.375C192.688 70.625 192.949 71.7159 193.517 72.6477C194.108 73.5795 194.915 74.3864 195.938 75.0682C196.96 75.7273 198.142 76.3068 199.483 76.8068C200.824 77.2841 202.256 77.6932 203.778 78.0341L210.051 79.5341C213.097 80.2159 215.892 81.125 218.438 82.2614C220.983 83.3977 223.188 84.7955 225.051 86.4545C226.915 88.1136 228.358 90.0682 229.381 92.3182C230.426 94.5682 230.96 97.1477 230.983 100.057C230.96 104.33 229.869 108.034 227.71 111.17C225.574 114.284 222.483 116.705 218.438 118.432C214.415 120.136 209.563 120.989 203.881 120.989C198.244 120.989 193.335 120.125 189.153 118.398C184.994 116.67 181.744 114.114 179.403 110.727C177.085 107.318 175.869 103.102 175.756 98.0795H190.04C190.199 100.42 190.869 102.375 192.051 103.943C193.256 105.489 194.858 106.659 196.858 107.455C198.881 108.227 201.165 108.614 203.71 108.614C206.21 108.614 208.381 108.25 210.222 107.523C212.085 106.795 213.528 105.784 214.551 104.489C215.574 103.193 216.085 101.705 216.085 100.023C216.085 98.4545 215.619 97.1364 214.688 96.0682C213.778 95 212.438 94.0909 210.665 93.3409C208.915 92.5909 206.767 91.9091 204.222 91.2955L196.619 89.3864C190.733 87.9545 186.085 85.7159 182.676 82.6705C179.267 79.625 177.574 75.5227 177.597 70.3636C177.574 66.1364 178.699 62.4432 180.972 59.2841C183.267 56.125 186.415 53.6591 190.415 51.8864C194.415 50.1136 198.96 49.2273 204.051 49.2273C209.233 49.2273 213.756 50.1136 217.619 51.8864C221.506 53.6591 224.528 56.125 226.688 59.2841C228.847 62.4432 229.96 66.1023 230.028 70.2614H215.881ZM268.491 67.6364V78.5455H236.957V67.6364H268.491ZM244.116 55.0909H258.639V103.909C258.639 105.25 258.844 106.295 259.253 107.045C259.662 107.773 260.23 108.284 260.957 108.58C261.707 108.875 262.571 109.023 263.548 109.023C264.23 109.023 264.912 108.966 265.594 108.852C266.276 108.716 266.798 108.614 267.162 108.545L269.446 119.352C268.719 119.58 267.696 119.841 266.378 120.136C265.06 120.455 263.457 120.648 261.571 120.716C258.071 120.852 255.003 120.386 252.366 119.318C249.753 118.25 247.719 116.591 246.264 114.341C244.81 112.091 244.094 109.25 244.116 105.818V55.0909ZM292.884 120.989C289.543 120.989 286.565 120.409 283.952 119.25C281.338 118.068 279.27 116.33 277.747 114.034C276.247 111.716 275.497 108.83 275.497 105.375C275.497 102.466 276.031 100.023 277.099 98.0455C278.168 96.0682 279.622 94.4773 281.463 93.2727C283.304 92.0682 285.395 91.1591 287.736 90.5455C290.099 89.9318 292.577 89.5 295.168 89.25C298.213 88.9318 300.668 88.6364 302.531 88.3636C304.395 88.0682 305.747 87.6364 306.588 87.0682C307.429 86.5 307.849 85.6591 307.849 84.5455V84.3409C307.849 82.1818 307.168 80.5114 305.804 79.3295C304.463 78.1477 302.554 77.5568 300.077 77.5568C297.463 77.5568 295.384 78.1364 293.838 79.2955C292.293 80.4318 291.27 81.8636 290.77 83.5909L277.338 82.5C278.02 79.3182 279.361 76.5682 281.361 74.25C283.361 71.9091 285.94 70.1136 289.099 68.8636C292.281 67.5909 295.963 66.9545 300.145 66.9545C303.054 66.9545 305.838 67.2955 308.497 67.9773C311.179 68.6591 313.554 69.7159 315.622 71.1477C317.713 72.5795 319.361 74.4205 320.565 76.6705C321.77 78.8977 322.372 81.5682 322.372 84.6818V120H308.599V112.739H308.19C307.349 114.375 306.224 115.818 304.815 117.068C303.406 118.295 301.713 119.261 299.736 119.966C297.759 120.648 295.474 120.989 292.884 120.989ZM297.043 110.966C299.179 110.966 301.065 110.545 302.702 109.705C304.338 108.841 305.622 107.682 306.554 106.227C307.486 104.773 307.952 103.125 307.952 101.284V95.7273C307.497 96.0227 306.872 96.2955 306.077 96.5455C305.304 96.7727 304.429 96.9886 303.452 97.1932C302.474 97.375 301.497 97.5455 300.52 97.7045C299.543 97.8409 298.656 97.9659 297.861 98.0795C296.156 98.3295 294.668 98.7273 293.395 99.2727C292.122 99.8182 291.134 100.557 290.429 101.489C289.724 102.398 289.372 103.534 289.372 104.898C289.372 106.875 290.088 108.386 291.52 109.432C292.974 110.455 294.815 110.966 297.043 110.966ZM333.639 120V67.6364H347.719V76.7727H348.264C349.219 73.5227 350.821 71.0682 353.071 69.4091C355.321 67.7273 357.912 66.8864 360.844 66.8864C361.571 66.8864 362.355 66.9318 363.196 67.0227C364.037 67.1136 364.776 67.2386 365.412 67.3977V80.2841C364.73 80.0795 363.787 79.8977 362.582 79.7386C361.378 79.5795 360.276 79.5 359.276 79.5C357.139 79.5 355.23 79.9659 353.548 80.8977C351.889 81.8068 350.571 83.0795 349.594 84.7159C348.639 86.3523 348.162 88.2386 348.162 90.375V120H333.639ZM403.398 67.6364V78.5455H371.864V67.6364H403.398ZM379.023 55.0909H393.545V103.909C393.545 105.25 393.75 106.295 394.159 107.045C394.568 107.773 395.136 108.284 395.864 108.58C396.614 108.875 397.477 109.023 398.455 109.023C399.136 109.023 399.818 108.966 400.5 108.852C401.182 108.716 401.705 108.614 402.068 108.545L404.352 119.352C403.625 119.58 402.602 119.841 401.284 120.136C399.966 120.455 398.364 120.648 396.477 120.716C392.977 120.852 389.909 120.386 387.273 119.318C384.659 118.25 382.625 116.591 381.17 114.341C379.716 112.091 379 109.25 379.023 105.818V55.0909Z" fill="black"/>
</svg>
