<svg width="847" height="165" viewBox="0 0 847 165" fill="none" xmlns="http://www.w3.org/2000/svg">
<mask id="path-1-inside-1_20_2" fill="white">
<rect y="0.725723" width="847" height="164.008" rx="12"/>
</mask>
<rect y="0.725723" width="847" height="164.008" rx="12" fill="white" stroke="#14729A" stroke-width="40" mask="url(#path-1-inside-1_20_2)"/>
<path d="M325.341 63.4075C324.977 59.7409 323.417 56.8924 320.659 54.8621C317.902 52.8318 314.159 51.8166 309.432 51.8166C306.22 51.8166 303.508 52.2712 301.295 53.1803C299.083 54.0591 297.386 55.2863 296.205 56.8621C295.053 58.4378 294.477 60.2257 294.477 62.2257C294.417 63.8924 294.765 65.3469 295.523 66.5894C296.311 67.8318 297.386 68.9075 298.75 69.8166C300.114 70.6954 301.689 71.4681 303.477 72.1348C305.265 72.7712 307.174 73.3166 309.205 73.7712L317.568 75.7712C321.629 76.6803 325.356 77.8924 328.75 79.4075C332.144 80.9227 335.083 82.7863 337.568 84.9984C340.053 87.2106 341.977 89.8166 343.341 92.8166C344.735 95.8166 345.447 99.256 345.477 103.135C345.447 108.832 343.992 113.771 341.114 117.953C338.265 122.105 334.144 125.332 328.75 127.635C323.386 129.908 316.917 131.044 309.341 131.044C301.826 131.044 295.28 129.892 289.705 127.589C284.159 125.286 279.826 121.877 276.705 117.362C273.614 112.817 271.992 107.195 271.841 100.498H290.886C291.098 103.62 291.992 106.226 293.568 108.317C295.174 110.377 297.311 111.938 299.977 112.998C302.674 114.029 305.72 114.544 309.114 114.544C312.447 114.544 315.341 114.059 317.795 113.089C320.28 112.12 322.205 110.771 323.568 109.044C324.932 107.317 325.614 105.332 325.614 103.089C325.614 100.998 324.992 99.2409 323.75 97.8166C322.538 96.3924 320.75 95.1803 318.386 94.1803C316.053 93.1803 313.189 92.2712 309.795 91.453L299.659 88.9075C291.811 86.9984 285.614 84.0136 281.068 79.953C276.523 75.8924 274.265 70.4227 274.295 63.5439C274.265 57.9075 275.765 52.9833 278.795 48.7712C281.856 44.5591 286.053 41.2712 291.386 38.9075C296.72 36.5439 302.78 35.3621 309.568 35.3621C316.477 35.3621 322.508 36.5439 327.659 38.9075C332.841 41.2712 336.871 44.5591 339.75 48.7712C342.629 52.9833 344.114 57.8621 344.205 63.4075H325.341ZM395.489 59.9075V74.453H353.443V59.9075H395.489ZM362.989 43.1803H382.352V108.271C382.352 110.059 382.625 111.453 383.17 112.453C383.716 113.423 384.473 114.105 385.443 114.498C386.443 114.892 387.595 115.089 388.898 115.089C389.807 115.089 390.716 115.014 391.625 114.862C392.534 114.68 393.231 114.544 393.716 114.453L396.761 128.862C395.792 129.165 394.428 129.514 392.67 129.908C390.913 130.332 388.777 130.589 386.261 130.68C381.595 130.862 377.504 130.241 373.989 128.817C370.504 127.392 367.792 125.18 365.852 122.18C363.913 119.18 362.958 115.392 362.989 110.817V43.1803ZM428.011 131.044C423.557 131.044 419.587 130.271 416.102 128.726C412.617 127.15 409.86 124.832 407.83 121.771C405.83 118.68 404.83 114.832 404.83 110.226C404.83 106.347 405.542 103.089 406.966 100.453C408.39 97.8166 410.33 95.6954 412.784 94.0894C415.239 92.4833 418.027 91.2712 421.148 90.453C424.299 89.6348 427.602 89.0591 431.057 88.7257C435.117 88.3015 438.39 87.9075 440.875 87.5439C443.36 87.15 445.163 86.5742 446.284 85.8166C447.405 85.0591 447.966 83.9378 447.966 82.453V82.1803C447.966 79.3015 447.057 77.0742 445.239 75.4984C443.451 73.9227 440.905 73.1348 437.602 73.1348C434.117 73.1348 431.345 73.9075 429.284 75.453C427.223 76.9681 425.86 78.8772 425.193 81.1803L407.284 79.7257C408.193 75.4833 409.981 71.8166 412.648 68.7257C415.314 65.6045 418.754 63.2106 422.966 61.5439C427.208 59.8469 432.117 58.9985 437.693 58.9985C441.572 58.9985 445.284 59.453 448.83 60.3621C452.405 61.2712 455.572 62.6803 458.33 64.5894C461.117 66.4984 463.314 68.953 464.92 71.953C466.527 74.9227 467.33 78.4833 467.33 82.6348V129.726H448.966V120.044H448.42C447.299 122.226 445.799 124.15 443.92 125.817C442.042 127.453 439.784 128.741 437.148 129.68C434.511 130.589 431.466 131.044 428.011 131.044ZM433.557 117.68C436.405 117.68 438.92 117.12 441.102 115.998C443.284 114.847 444.996 113.301 446.239 111.362C447.481 109.423 448.102 107.226 448.102 104.771V97.3621C447.496 97.756 446.663 98.1197 445.602 98.453C444.572 98.756 443.405 99.0439 442.102 99.3166C440.799 99.5591 439.496 99.7863 438.193 99.9984C436.89 100.18 435.708 100.347 434.648 100.498C432.375 100.832 430.39 101.362 428.693 102.089C426.996 102.817 425.678 103.801 424.739 105.044C423.799 106.256 423.33 107.771 423.33 109.589C423.33 112.226 424.284 114.241 426.193 115.635C428.133 116.998 430.587 117.68 433.557 117.68ZM482.352 129.726V59.9075H501.125V72.0894H501.852C503.125 67.756 505.261 64.4833 508.261 62.2712C511.261 60.0288 514.716 58.9075 518.625 58.9075C519.595 58.9075 520.64 58.9681 521.761 59.0894C522.883 59.2106 523.867 59.3772 524.716 59.5894V76.7712C523.807 76.4984 522.549 76.256 520.943 76.0439C519.337 75.8318 517.867 75.7257 516.534 75.7257C513.686 75.7257 511.14 76.3469 508.898 77.5894C506.686 78.8015 504.928 80.4984 503.625 82.6803C502.352 84.8621 501.716 87.3772 501.716 90.2257V129.726H482.352ZM575.364 59.9075V74.453H533.318V59.9075H575.364ZM542.864 43.1803H562.227V108.271C562.227 110.059 562.5 111.453 563.045 112.453C563.591 113.423 564.348 114.105 565.318 114.498C566.318 114.892 567.47 115.089 568.773 115.089C569.682 115.089 570.591 115.014 571.5 114.862C572.409 114.68 573.106 114.544 573.591 114.453L576.636 128.862C575.667 129.165 574.303 129.514 572.545 129.908C570.788 130.332 568.652 130.589 566.136 130.68C561.47 130.862 557.379 130.241 553.864 128.817C550.379 127.392 547.667 125.18 545.727 122.18C543.788 119.18 542.833 115.392 542.864 110.817V43.1803Z" fill="#14729A"/>
</svg>
