<svg width="205" height="360" viewBox="0 0 205 360" fill="none" xmlns="http://www.w3.org/2000/svg">
<path d="M183.968 162.094C225.51 225.661 180.698 356.409 180.698 356.409C180.698 356.409 41.7845 319.604 11.5414 246.887C-12.9412 188.021 24.9255 84.3036 24.9255 84.3036L25.3089 14.3733L44.4674 4.95189L24.9255 84.3036C24.9255 84.3036 146.106 104.157 183.968 162.094Z" fill="#03500B"/>
<path d="M180.698 356.409C180.698 356.409 225.51 225.661 183.968 162.094C146.106 104.157 24.9255 84.3036 24.9255 84.3036M180.698 356.409C180.698 356.409 41.7845 319.604 11.5414 246.887C-12.9411 188.021 24.9255 84.3036 24.9255 84.3036M180.698 356.409L115.11 241.839M24.9255 84.3036L44.4674 4.9519L25.3089 14.3733L24.9255 84.3036ZM24.9255 84.3036L55.6702 138.009M115.11 241.839L111.897 305.819M115.11 241.839L86.4148 191.714M86.4148 191.714L159.46 209.017M86.4148 191.714L55.6702 138.009M55.6702 138.009L36.6958 216.164" stroke="#028B0F" stroke-width="5"/>
</svg>
