<svg width="135" height="52" viewBox="0 0 135 52" fill="none" xmlns="http://www.w3.org/2000/svg">
<rect x="2" y="2" width="131" height="48" rx="10" fill="white" stroke="#14729A" stroke-width="4"/>
<path d="M33.0874 35V17.5455H39.9737C41.2976 17.5455 42.4254 17.7983 43.3572 18.304C44.2891 18.804 44.9993 19.5 45.4879 20.392C45.9822 21.2784 46.2294 22.3011 46.2294 23.4602C46.2294 24.6193 45.9794 25.642 45.4794 26.5284C44.9794 27.4148 44.255 28.1051 43.3061 28.5994C42.3629 29.0937 41.2209 29.3409 39.88 29.3409H35.4908V26.3835H39.2834C39.9936 26.3835 40.5788 26.2614 41.0391 26.017C41.505 25.767 41.8516 25.4233 42.0788 24.9858C42.3118 24.5426 42.4283 24.0341 42.4283 23.4602C42.4283 22.8807 42.3118 22.375 42.0788 21.9432C41.8516 21.5057 41.505 21.1676 41.0391 20.929C40.5732 20.6847 39.9822 20.5625 39.2663 20.5625H36.7777V35H33.0874ZM51.9396 35.2472C51.1044 35.2472 50.3601 35.1023 49.7067 34.8125C49.0533 34.517 48.5362 34.0824 48.1555 33.5085C47.7805 32.929 47.593 32.2074 47.593 31.3438C47.593 30.6165 47.7266 30.0057 47.9936 29.5114C48.2607 29.017 48.6243 28.6193 49.0845 28.3182C49.5447 28.017 50.0675 27.7898 50.6527 27.6364C51.2436 27.483 51.8629 27.375 52.5107 27.3125C53.272 27.233 53.8857 27.1591 54.3516 27.0909C54.8175 27.017 55.1555 26.9091 55.3658 26.767C55.576 26.625 55.6811 26.4148 55.6811 26.1364V26.0852C55.6811 25.5455 55.5107 25.1278 55.1697 24.8324C54.8345 24.5369 54.3572 24.3892 53.7379 24.3892C53.0845 24.3892 52.5646 24.5341 52.1783 24.8239C51.7919 25.108 51.5362 25.4659 51.4112 25.8977L48.0533 25.625C48.2237 24.8295 48.5589 24.142 49.0589 23.5625C49.5589 22.9773 50.2038 22.5284 50.9936 22.2159C51.7891 21.8977 52.7095 21.7386 53.755 21.7386C54.4822 21.7386 55.1783 21.8239 55.843 21.9943C56.5135 22.1648 57.1072 22.429 57.6243 22.7869C58.147 23.1449 58.5589 23.6051 58.8601 24.1676C59.1612 24.7244 59.3118 25.392 59.3118 26.1705V35H55.8686V33.1847H55.7663C55.5561 33.5938 55.2749 33.9545 54.9226 34.267C54.5703 34.5739 54.147 34.8153 53.6527 34.9915C53.1584 35.1619 52.5874 35.2472 51.9396 35.2472ZM52.9794 32.7415C53.5135 32.7415 53.9851 32.6364 54.3942 32.4261C54.8033 32.2102 55.1243 31.9205 55.3572 31.5568C55.5902 31.1932 55.7067 30.7812 55.7067 30.321V28.9318C55.593 29.0057 55.4368 29.0739 55.2379 29.1364C55.0447 29.1932 54.826 29.2472 54.5817 29.2983C54.3374 29.3437 54.093 29.3864 53.8487 29.4261C53.6044 29.4602 53.3828 29.4915 53.1839 29.5199C52.7578 29.5824 52.3857 29.6818 52.0675 29.8182C51.7493 29.9545 51.5021 30.1392 51.326 30.3722C51.1499 30.5994 51.0618 30.8835 51.0618 31.2244C51.0618 31.7188 51.2408 32.0966 51.5987 32.358C51.9624 32.6136 52.4226 32.7415 52.9794 32.7415ZM70.5234 29.4261V21.9091H74.1541V35H70.6683V32.6222H70.532C70.2365 33.3892 69.745 34.0057 69.0575 34.4716C68.3757 34.9375 67.5433 35.1705 66.5604 35.1705C65.6854 35.1705 64.9155 34.9716 64.2507 34.5739C63.5859 34.1761 63.0661 33.6108 62.6911 32.8778C62.3217 32.1449 62.1342 31.267 62.1286 30.2443V21.9091H65.7592V29.5966C65.7649 30.3693 65.9723 30.9801 66.3814 31.429C66.7905 31.8778 67.3388 32.1023 68.0263 32.1023C68.4638 32.1023 68.8729 32.0028 69.2536 31.804C69.6342 31.5994 69.9411 31.2983 70.174 30.9006C70.4126 30.5028 70.5291 30.0114 70.5234 29.4261ZM87.9503 25.642L84.6264 25.8466C84.5696 25.5625 84.4474 25.3068 84.2599 25.0795C84.0724 24.8466 83.8253 24.6619 83.5185 24.5256C83.2173 24.3835 82.8565 24.3125 82.4361 24.3125C81.8736 24.3125 81.3991 24.4318 81.0128 24.6705C80.6264 24.9034 80.4332 25.2159 80.4332 25.608C80.4332 25.9205 80.5582 26.1847 80.8082 26.4006C81.0582 26.6165 81.4872 26.7898 82.0952 26.9205L84.4645 27.3977C85.7372 27.6591 86.6861 28.0795 87.3111 28.6591C87.9361 29.2386 88.2486 30 88.2486 30.9432C88.2486 31.8011 87.9957 32.554 87.4901 33.2017C86.9901 33.8494 86.3026 34.3551 85.4276 34.7188C84.5582 35.0767 83.5554 35.2557 82.419 35.2557C80.6861 35.2557 79.3054 34.8949 78.277 34.1733C77.2543 33.446 76.6548 32.4574 76.4787 31.2074L80.0497 31.0199C80.1577 31.5483 80.419 31.9517 80.8338 32.2301C81.2486 32.5028 81.7798 32.6392 82.4276 32.6392C83.0639 32.6392 83.5753 32.517 83.9616 32.2727C84.3537 32.0227 84.5526 31.7017 84.5582 31.3097C84.5526 30.9801 84.4134 30.7102 84.1406 30.5C83.8679 30.2841 83.4474 30.1193 82.8793 30.0057L80.6122 29.554C79.3338 29.2983 78.3821 28.8551 77.7571 28.2244C77.1378 27.5937 76.8281 26.7898 76.8281 25.8125C76.8281 24.9716 77.0554 24.2472 77.5099 23.6392C77.9702 23.0312 78.6151 22.5625 79.4446 22.233C80.2798 21.9034 81.2571 21.7386 82.3764 21.7386C84.0298 21.7386 85.331 22.0881 86.2798 22.7869C87.2344 23.4858 87.7912 24.4375 87.9503 25.642ZM96.5007 35.2557C95.1541 35.2557 93.995 34.983 93.0234 34.4375C92.0575 33.8864 91.3132 33.108 90.7905 32.1023C90.2678 31.0909 90.0064 29.8949 90.0064 28.5142C90.0064 27.1676 90.2678 25.9858 90.7905 24.9688C91.3132 23.9517 92.049 23.1591 92.9979 22.5909C93.9524 22.0227 95.0717 21.7386 96.3558 21.7386C97.2195 21.7386 98.0234 21.8778 98.7678 22.1562C99.5178 22.429 100.171 22.8409 100.728 23.392C101.29 23.9432 101.728 24.6364 102.04 25.4716C102.353 26.3011 102.509 27.2727 102.509 28.3864V29.3835H91.4553V27.1335H99.0916C99.0916 26.6108 98.978 26.1477 98.7507 25.7443C98.5234 25.3409 98.2081 25.0256 97.8047 24.7983C97.407 24.5653 96.9439 24.4489 96.4155 24.4489C95.8643 24.4489 95.3757 24.5767 94.9496 24.8324C94.5291 25.0824 94.1996 25.4205 93.9609 25.8466C93.7223 26.267 93.6001 26.7358 93.5945 27.2528V29.392C93.5945 30.0398 93.7138 30.5994 93.9524 31.071C94.1967 31.5426 94.5405 31.9062 94.9837 32.1619C95.4268 32.4176 95.9524 32.5455 96.5604 32.5455C96.9638 32.5455 97.3331 32.4886 97.6683 32.375C98.0036 32.2614 98.2905 32.0909 98.5291 31.8636C98.7678 31.6364 98.9496 31.358 99.0746 31.0284L102.433 31.25C102.262 32.0568 101.913 32.7614 101.384 33.3636C100.862 33.9602 100.185 34.4261 99.3558 34.7614C98.532 35.0909 97.5803 35.2557 96.5007 35.2557Z" fill="#14729A"/>
</svg>
