<svg width="135" height="52" viewBox="0 0 135 52" fill="none" xmlns="http://www.w3.org/2000/svg">
<rect x="2" y="2" width="131" height="48" rx="10" fill="white" stroke="#14729A" stroke-width="4"/>
<path d="M50.82 28.9318H53.9563L55.533 30.9602L57.0842 32.767L60.0075 36.4318H56.5643L54.5529 33.9602L53.5217 32.4943L50.82 28.9318ZM60.2717 26.2727C60.2717 28.1761 59.9109 29.7955 59.1893 31.1307C58.4734 32.4659 57.4961 33.4858 56.2575 34.1903C55.0245 34.8892 53.6381 35.2386 52.0984 35.2386C50.5472 35.2386 49.1552 34.8864 47.9222 34.1818C46.6893 33.4773 45.7148 32.4574 44.9989 31.1222C44.283 29.7869 43.9251 28.1705 43.9251 26.2727C43.9251 24.3693 44.283 22.75 44.9989 21.4148C45.7148 20.0795 46.6893 19.0625 47.9222 18.3636C49.1552 17.6591 50.5472 17.3068 52.0984 17.3068C53.6381 17.3068 55.0245 17.6591 56.2575 18.3636C57.4961 19.0625 58.4734 20.0795 59.1893 21.4148C59.9109 22.75 60.2717 24.3693 60.2717 26.2727ZM56.5302 26.2727C56.5302 25.0398 56.3455 24 55.9762 23.1534C55.6126 22.3068 55.0984 21.6648 54.4336 21.2273C53.7688 20.7898 52.9904 20.571 52.0984 20.571C51.2063 20.571 50.4279 20.7898 49.7631 21.2273C49.0984 21.6648 48.5813 22.3068 48.212 23.1534C47.8484 24 47.6665 25.0398 47.6665 26.2727C47.6665 27.5057 47.8484 28.5455 48.212 29.392C48.5813 30.2386 49.0984 30.8807 49.7631 31.3182C50.4279 31.7557 51.2063 31.9744 52.0984 31.9744C52.9904 31.9744 53.7688 31.7557 54.4336 31.3182C55.0984 30.8807 55.6126 30.2386 55.9762 29.392C56.3455 28.5455 56.5302 27.5057 56.5302 26.2727ZM71.332 29.4261V21.9091H74.9627V35H71.4769V32.6222H71.3406C71.0451 33.3892 70.5536 34.0057 69.8661 34.4716C69.1843 34.9375 68.3519 35.1705 67.369 35.1705C66.494 35.1705 65.7241 34.9716 65.0593 34.5739C64.3945 34.1761 63.8746 33.6108 63.4996 32.8778C63.1303 32.1449 62.9428 31.267 62.9371 30.2443V21.9091H66.5678V29.5966C66.5735 30.3693 66.7809 30.9801 67.19 31.429C67.5991 31.8778 68.1474 32.1023 68.8349 32.1023C69.2724 32.1023 69.6815 32.0028 70.0621 31.804C70.4428 31.5994 70.7496 31.2983 70.9826 30.9006C71.2212 30.5028 71.3377 30.0114 71.332 29.4261ZM77.8668 35V21.9091H81.4975V35H77.8668ZM79.6907 20.2216C79.1509 20.2216 78.6879 20.0426 78.3015 19.6847C77.9208 19.321 77.7305 18.8864 77.7305 18.3807C77.7305 17.8807 77.9208 17.4517 78.3015 17.0938C78.6879 16.7301 79.1509 16.5483 79.6907 16.5483C80.2305 16.5483 80.6907 16.7301 81.0714 17.0938C81.4577 17.4517 81.6509 17.8807 81.6509 18.3807C81.6509 18.8864 81.4577 19.321 81.0714 19.6847C80.6907 20.0426 80.2305 20.2216 79.6907 20.2216ZM91.369 21.9091V24.6364H83.4854V21.9091H91.369ZM85.2752 18.7727H88.9059V30.9773C88.9059 31.3125 88.957 31.5739 89.0593 31.7614C89.1616 31.9432 89.3036 32.071 89.4854 32.1449C89.6729 32.2187 89.8888 32.2557 90.1332 32.2557C90.3036 32.2557 90.4741 32.2415 90.6445 32.2131C90.815 32.179 90.9457 32.1534 91.0366 32.1364L91.6076 34.8381C91.4258 34.8949 91.1701 34.9602 90.8406 35.0341C90.511 35.1136 90.1104 35.1619 89.6388 35.179C88.7638 35.2131 87.9968 35.0966 87.3377 34.8295C86.6843 34.5625 86.1758 34.1477 85.8121 33.5852C85.4485 33.0227 85.2695 32.3125 85.2752 31.4545V18.7727Z" fill="#14729A"/>
</svg>
