<svg width="135" height="52" viewBox="0 0 135 52" fill="none" xmlns="http://www.w3.org/2000/svg">
<rect x="2" y="2" width="131" height="48" rx="10" fill="white" stroke="#14729A" stroke-width="4"/>
<path d="M49.0952 22.5653C49.027 21.8778 48.7344 21.3437 48.2173 20.9631C47.7003 20.5824 46.9986 20.392 46.1122 20.392C45.5099 20.392 45.0014 20.4773 44.5866 20.6477C44.1719 20.8125 43.8537 21.0426 43.6321 21.3381C43.4162 21.6335 43.3082 21.9688 43.3082 22.3438C43.2969 22.6562 43.3622 22.929 43.5043 23.1619C43.652 23.3949 43.8537 23.5966 44.1094 23.767C44.3651 23.9318 44.6605 24.0767 44.9957 24.2017C45.331 24.321 45.6889 24.4233 46.0696 24.5085L47.6378 24.8835C48.3991 25.054 49.098 25.2812 49.7344 25.5653C50.3707 25.8494 50.9219 26.1989 51.3878 26.6136C51.8537 27.0284 52.2145 27.517 52.4702 28.0795C52.7315 28.642 52.8651 29.2869 52.8707 30.0142C52.8651 31.0824 52.5923 32.0085 52.0526 32.7926C51.5185 33.571 50.7457 34.1761 49.7344 34.608C48.7287 35.0341 47.5156 35.2472 46.0952 35.2472C44.6861 35.2472 43.4588 35.0312 42.4134 34.5994C41.3736 34.1676 40.5611 33.5284 39.9759 32.6818C39.3963 31.8295 39.0923 30.7756 39.0639 29.5199H42.6349C42.6747 30.1051 42.8423 30.5937 43.1378 30.9858C43.4389 31.3722 43.8395 31.6648 44.3395 31.8636C44.8452 32.0568 45.4162 32.1534 46.0526 32.1534C46.6776 32.1534 47.2202 32.0625 47.6804 31.8807C48.1463 31.6989 48.5071 31.446 48.7628 31.1222C49.0185 30.7983 49.1463 30.4261 49.1463 30.0057C49.1463 29.6136 49.0298 29.2841 48.7969 29.017C48.5696 28.75 48.2344 28.5227 47.7912 28.3352C47.3537 28.1477 46.8168 27.9773 46.1804 27.8239L44.2798 27.3466C42.8082 26.9886 41.6463 26.429 40.794 25.6676C39.9418 24.9062 39.5185 23.8807 39.5241 22.5909C39.5185 21.5341 39.7997 20.6108 40.3679 19.821C40.9418 19.0312 41.7287 18.4148 42.7287 17.9716C43.7287 17.5284 44.8651 17.3068 46.1378 17.3068C47.4332 17.3068 48.5639 17.5284 49.5298 17.9716C50.5014 18.4148 51.2571 19.0312 51.7969 19.821C52.3366 20.6108 52.6151 21.5256 52.6321 22.5653H49.0952ZM62.2479 21.9091V24.6364H54.3643V21.9091H62.2479ZM56.1541 18.7727H59.7848V30.9773C59.7848 31.3125 59.8359 31.5739 59.9382 31.7614C60.0405 31.9432 60.1825 32.071 60.3643 32.1449C60.5518 32.2187 60.7678 32.2557 61.0121 32.2557C61.1825 32.2557 61.353 32.2415 61.5234 32.2131C61.6939 32.179 61.8246 32.1534 61.9155 32.1364L62.4865 34.8381C62.3047 34.8949 62.049 34.9602 61.7195 35.0341C61.3899 35.1136 60.9893 35.1619 60.5178 35.179C59.6428 35.2131 58.8757 35.0966 58.2166 34.8295C57.5632 34.5625 57.0547 34.1477 56.6911 33.5852C56.3274 33.0227 56.1484 32.3125 56.1541 31.4545V18.7727ZM68.3459 35.2472C67.5107 35.2472 66.7663 35.1023 66.1129 34.8125C65.4595 34.517 64.9425 34.0824 64.5618 33.5085C64.1868 32.929 63.9993 32.2074 63.9993 31.3438C63.9993 30.6165 64.1328 30.0057 64.3999 29.5114C64.6669 29.017 65.0305 28.6193 65.4908 28.3182C65.951 28.017 66.4737 27.7898 67.0589 27.6364C67.6499 27.483 68.2692 27.375 68.9169 27.3125C69.6783 27.233 70.2919 27.1591 70.7578 27.0909C71.2237 27.017 71.5618 26.9091 71.772 26.767C71.9822 26.625 72.0874 26.4148 72.0874 26.1364V26.0852C72.0874 25.5455 71.9169 25.1278 71.576 24.8324C71.2408 24.5369 70.7635 24.3892 70.1442 24.3892C69.4908 24.3892 68.9709 24.5341 68.5845 24.8239C68.1982 25.108 67.9425 25.4659 67.8175 25.8977L64.4595 25.625C64.63 24.8295 64.9652 24.142 65.4652 23.5625C65.9652 22.9773 66.6101 22.5284 67.3999 22.2159C68.1953 21.8977 69.1158 21.7386 70.1612 21.7386C70.8885 21.7386 71.5845 21.8239 72.2493 21.9943C72.9197 22.1648 73.5135 22.429 74.0305 22.7869C74.5533 23.1449 74.9652 23.6051 75.2663 24.1676C75.5675 24.7244 75.718 25.392 75.718 26.1705V35H72.2749V33.1847H72.1726C71.9624 33.5938 71.6811 33.9545 71.3288 34.267C70.9766 34.5739 70.5533 34.8153 70.0589 34.9915C69.5646 35.1619 68.9936 35.2472 68.3459 35.2472ZM69.3857 32.7415C69.9197 32.7415 70.3913 32.6364 70.8004 32.4261C71.2095 32.2102 71.5305 31.9205 71.7635 31.5568C71.9964 31.1932 72.1129 30.7812 72.1129 30.321V28.9318C71.9993 29.0057 71.843 29.0739 71.6442 29.1364C71.451 29.1932 71.2322 29.2472 70.9879 29.2983C70.7436 29.3437 70.4993 29.3864 70.255 29.4261C70.0107 29.4602 69.7891 29.4915 69.5902 29.5199C69.1641 29.5824 68.7919 29.6818 68.4737 29.8182C68.1555 29.9545 67.9084 30.1392 67.7322 30.3722C67.5561 30.5994 67.468 30.8835 67.468 31.2244C67.468 31.7188 67.647 32.0966 68.005 32.358C68.3686 32.6136 68.8288 32.7415 69.3857 32.7415ZM78.5348 35V21.9091H82.0547V24.1932H82.1911C82.4297 23.3807 82.8303 22.767 83.3928 22.3523C83.9553 21.9318 84.603 21.7216 85.3359 21.7216C85.5178 21.7216 85.7138 21.733 85.924 21.7557C86.1342 21.7784 86.3189 21.8097 86.478 21.8494V25.071C86.3075 25.0199 86.0717 24.9744 85.7706 24.9347C85.4695 24.8949 85.1939 24.875 84.9439 24.875C84.4098 24.875 83.9325 24.9915 83.5121 25.2244C83.0973 25.4517 82.7678 25.7699 82.5234 26.179C82.2848 26.5881 82.1655 27.0597 82.1655 27.5938V35H78.5348ZM95.9744 21.9091V24.6364H88.0909V21.9091H95.9744ZM89.8807 18.7727H93.5114V30.9773C93.5114 31.3125 93.5625 31.5739 93.6648 31.7614C93.767 31.9432 93.9091 32.071 94.0909 32.1449C94.2784 32.2187 94.4943 32.2557 94.7386 32.2557C94.9091 32.2557 95.0795 32.2415 95.25 32.2131C95.4205 32.179 95.5511 32.1534 95.642 32.1364L96.2131 34.8381C96.0313 34.8949 95.7756 34.9602 95.446 35.0341C95.1165 35.1136 94.7159 35.1619 94.2443 35.179C93.3693 35.2131 92.6023 35.0966 91.9432 34.8295C91.2898 34.5625 90.7813 34.1477 90.4176 33.5852C90.054 33.0227 89.875 32.3125 89.8807 31.4545V18.7727Z" fill="#14729A"/>
</svg>
